<svg width="18" height="17" viewBox="0 0 18 17" fill="none" xmlns="http://www.w3.org/2000/svg">
<path d="M14.5459 12.7458C14.2417 12.0253 13.8003 11.3709 13.2462 10.8189C12.6938 10.2653 12.0395 9.82399 11.3193 9.51922C11.3128 9.51599 11.3064 9.51438 11.2999 9.51115C12.3045 8.78553 12.9576 7.60356 12.9576 6.27001C12.9576 4.06088 11.1677 2.271 8.95858 2.271C6.74944 2.271 4.95956 4.06088 4.95956 6.27001C4.95956 7.60356 5.61262 8.78552 6.61721 9.51277C6.61076 9.51599 6.60431 9.5176 6.59786 9.52083C5.87546 9.82559 5.22723 10.2626 4.67092 10.8205C4.11736 11.3729 3.67601 12.0273 3.37124 12.7475C3.07183 13.4525 2.91035 14.2085 2.89555 14.9743C2.89512 14.9915 2.89814 15.0087 2.90443 15.0247C2.91072 15.0407 2.92015 15.0553 2.93217 15.0676C2.94419 15.08 2.95856 15.0898 2.97443 15.0964C2.99029 15.1031 3.00733 15.1066 3.02455 15.1066H3.99205C4.063 15.1066 4.11944 15.0501 4.12105 14.9808C4.1533 13.7359 4.65318 12.5701 5.53683 11.6864C6.45113 10.7721 7.66534 10.269 8.95858 10.269C10.2518 10.269 11.466 10.7721 12.3803 11.6864C13.264 12.5701 13.7638 13.7359 13.7961 14.9808C13.7977 15.0517 13.8541 15.1066 13.9251 15.1066H14.8926C14.9098 15.1066 14.9269 15.1031 14.9427 15.0964C14.9586 15.0898 14.973 15.08 14.985 15.0676C14.997 15.0553 15.0064 15.0407 15.0127 15.0247C15.019 15.0087 15.022 14.9915 15.0216 14.9743C15.0055 14.2035 14.8458 13.4537 14.5459 12.7458ZM8.95858 9.04353C8.21843 9.04353 7.52183 8.75489 6.99777 8.23082C6.4737 7.70676 6.18506 7.01015 6.18506 6.27001C6.18506 5.52987 6.4737 4.83327 6.99777 4.30921C7.52183 3.78514 8.21843 3.4965 8.95858 3.4965C9.69872 3.4965 10.3953 3.78514 10.9194 4.30921C11.4434 4.83327 11.7321 5.52987 11.7321 6.27001C11.7321 7.01015 11.4434 7.70676 10.9194 8.23082C10.3953 8.75489 9.69872 9.04353 8.95858 9.04353Z" fill="#7F7F7F"/>
</svg>
