<svg width="18" height="17" viewBox="0 0 18 17" fill="none" xmlns="http://www.w3.org/2000/svg">
<path d="M15.667 3.09985H2.25093C1.96551 3.09985 1.73492 3.31763 1.73492 3.58719V13.3339C1.73492 13.6035 1.96551 13.8212 2.25093 13.8212H15.667C15.9524 13.8212 16.183 13.6035 16.183 13.3339V3.58719C16.183 3.31763 15.9524 3.09985 15.667 3.09985ZM15.022 4.78725V12.7247H2.89593V4.78725L2.45088 4.45982L3.08459 3.69075L3.77475 4.19788H14.1448L14.8349 3.69075L15.4686 4.45982L15.022 4.78725V4.78725ZM14.1448 4.19636L8.95896 8.00367L3.77313 4.19636L3.08298 3.68922L2.44926 4.4583L2.89432 4.78573L8.40264 8.83061C8.56105 8.94684 8.75594 9.00994 8.95654 9.00994C9.15714 9.00994 9.35202 8.94684 9.51043 8.83061L15.022 4.78725L15.467 4.45982L14.8333 3.69075L14.1448 4.19636Z" fill="#7F7F7F"/>
</svg>
