<svg width="20" height="19" viewBox="0 0 20 19" fill="none" xmlns="http://www.w3.org/2000/svg">
<path d="M16.5003 4.33548L14.5922 2.42914C14.3593 2.19622 14.0475 2.06543 13.7179 2.06543C13.3882 2.06543 13.0764 2.19443 12.8435 2.42914L10.7885 4.48061C10.5556 4.71352 10.4248 5.02707 10.4248 5.35674C10.4248 5.6882 10.5538 5.99816 10.7885 6.23286L12.3938 7.84C12.0281 8.69209 11.5027 9.46629 10.8458 10.1208C10.1883 10.7819 9.41964 11.3033 8.5668 11.6724L6.96146 10.0653C6.72855 9.83234 6.41679 9.70155 6.08713 9.70155C5.92452 9.70094 5.76343 9.7328 5.61329 9.79526C5.46316 9.85771 5.327 9.9495 5.21279 10.0653L3.15595 12.1167C2.92303 12.3496 2.79224 12.6632 2.79224 12.9929C2.79224 13.3243 2.92124 13.6343 3.15595 13.869L5.06229 15.7753C5.46004 16.1731 6.00829 16.4006 6.57088 16.4006C6.68734 16.4006 6.80021 16.3917 6.91488 16.372C9.28706 15.9814 11.6413 14.7182 13.5423 12.8191C15.4415 10.9163 16.7028 8.56204 17.097 6.18807C17.2098 5.5144 16.9841 4.82102 16.5003 4.33548ZM15.8267 5.97486C15.4773 8.08725 14.3414 10.1943 12.6303 11.9053C10.9193 13.6164 8.81406 14.7523 6.70167 15.1017C6.4365 15.1464 6.16417 15.0569 5.97067 14.8652L4.09837 12.9929L6.08354 11.0059L8.22997 13.1559L8.24609 13.172L8.6331 13.0287C9.80651 12.5973 10.8721 11.9158 11.756 11.0317C12.6398 10.1475 13.3209 9.08165 13.7519 7.90808L13.8952 7.52108L11.7309 5.35853L13.7161 3.37156L15.5884 5.24386C15.7819 5.43736 15.8715 5.7097 15.8267 5.97486Z" fill="#7F7F7F"/>
</svg>
