<svg width="17" height="17" viewBox="0 0 17 17" fill="none" xmlns="http://www.w3.org/2000/svg">
<path d="M8.09917 8.09433C8.09917 8.32242 8.18978 8.54116 8.35106 8.70244C8.51234 8.86372 8.73109 8.95433 8.95918 8.95433C9.18726 8.95433 9.40601 8.86372 9.56729 8.70244C9.72857 8.54116 9.81918 8.32242 9.81918 8.09433C9.81918 7.86624 9.72857 7.6475 9.56729 7.48621C9.40601 7.32493 9.18726 7.23432 8.95918 7.23432C8.73109 7.23432 8.51234 7.32493 8.35106 7.48621C8.18978 7.6475 8.09917 7.86624 8.09917 8.09433V8.09433ZM11.6825 8.09433C11.6825 8.32242 11.7731 8.54116 11.9344 8.70244C12.0957 8.86372 12.3144 8.95433 12.5425 8.95433C12.7706 8.95433 12.9894 8.86372 13.1506 8.70244C13.3119 8.54116 13.4025 8.32242 13.4025 8.09433C13.4025 7.86624 13.3119 7.6475 13.1506 7.48621C12.9894 7.32493 12.7706 7.23432 12.5425 7.23432C12.3144 7.23432 12.0957 7.32493 11.9344 7.48621C11.7731 7.6475 11.6825 7.86624 11.6825 8.09433ZM4.51582 8.09433C4.51582 8.32242 4.60643 8.54116 4.76771 8.70244C4.929 8.86372 5.14774 8.95433 5.37583 8.95433C5.60392 8.95433 5.82266 8.86372 5.98394 8.70244C6.14522 8.54116 6.23583 8.32242 6.23583 8.09433C6.23583 7.86624 6.14522 7.6475 5.98394 7.48621C5.82266 7.32493 5.60392 7.23432 5.37583 7.23432C5.14774 7.23432 4.929 7.32493 4.76771 7.48621C4.60643 7.6475 4.51582 7.86624 4.51582 8.09433V8.09433ZM16.3624 4.98398C15.9575 4.02185 15.377 3.15827 14.637 2.41651C13.9022 1.67905 13.0299 1.09286 12.0695 0.69113C11.0841 0.277253 10.0378 0.067627 8.95918 0.067627H8.92334C7.83759 0.073002 6.78588 0.288003 5.79687 0.710838C4.8447 1.11669 3.98059 1.70392 3.25269 2.4398C2.5199 3.17977 1.94477 4.03977 1.54702 4.99832C1.13493 5.9909 0.9271 7.0462 0.932475 8.13195C0.938554 9.37622 1.23292 10.6021 1.79248 11.7135V14.4369C1.79248 14.6554 1.87931 14.8651 2.03387 15.0196C2.18843 15.1742 2.39807 15.261 2.61665 15.261H5.34179C6.45315 15.8206 7.67908 16.115 8.92334 16.121H8.96097C10.0342 16.121 11.0751 15.9132 12.0552 15.5065C13.0107 15.1095 13.8798 14.5302 14.6137 13.8008C15.3537 13.068 15.936 12.2116 16.3427 11.2566C16.7655 10.2676 16.9805 9.21592 16.9859 8.13016C16.9913 7.03903 16.7798 5.98015 16.3624 4.98398V4.98398ZM13.6552 12.8315C12.3992 14.0749 10.7329 14.7594 8.95918 14.7594H8.92872C7.84834 14.754 6.77513 14.4852 5.82733 13.98L5.67683 13.8994H3.15415V11.3767L3.07353 11.2262C2.56827 10.2784 2.29952 9.20517 2.29415 8.12479C2.28698 6.33849 2.96961 4.66148 4.22199 3.39835C5.47258 2.13522 7.14421 1.43647 8.93051 1.4293H8.96097C9.85681 1.4293 10.7258 1.60309 11.5446 1.94709C12.3437 2.28214 13.0603 2.7641 13.6767 3.38043C14.2912 3.99498 14.775 4.71344 15.11 5.51253C15.4576 6.34028 15.6314 7.2182 15.6278 8.12479C15.617 9.90929 14.9165 11.5809 13.6552 12.8315V12.8315Z" fill="#7F7F7F"/>
</svg>
